<svg id="Layer_1_1_" enable-background="new 0 0 64 64" height="512" viewBox="0 0 64 64" width="512" xmlns="http://www.w3.org/2000/svg"><path d="m37 24.25c-.965 0-1.75.785-1.75 1.75s.785 1.75 1.75 1.75 1.75-.785 1.75-1.75-.785-1.75-1.75-1.75zm-.25 1.75c0-.138.112-.25.25-.25s.25.112.25.25c0 .275-.5.275-.5 0z"/><path d="m27 24.25c-.965 0-1.75.785-1.75 1.75s.785 1.75 1.75 1.75 1.75-.785 1.75-1.75-.785-1.75-1.75-1.75zm-.25 1.75c0-.138.112-.25.25-.25s.25.112.25.25c0 .275-.5.275-.5 0z"/><path d="m57.077 42.587-3.527 1.176c-.359.119-.74.119-1.1 0l-3.527-1.176c-.74-.248-1.511-.248-2.224-.04-1.649-.884-3.474-1.378-5.341-1.434l-3.358-2.443v-1.35c2.806-1.689 4.892-4.516 5.664-7.846 2.132 2.541 4.548 4.827 7.23 6.777l3.519 2.559c.175.127.381.19.587.19.237 0 .475-.085.663-.251.351-.312.438-.824.211-1.234-3.188-5.74-4.874-12.244-4.874-18.811v-7.704c0-4.963-4.037-9-9-9-2.337 0-4.569.918-6.24 2.528-1.198-.335-2.456-.528-3.76-.528-7.72 0-14 6.28-14 14v4.351c-1.178.564-2 1.758-2 3.149 0 1.93 1.57 3.5 3.5 3.5h.678c.414 2.481 1.583 4.763 3.416 6.563.731.718 1.543 1.319 2.406 1.82v1.286l-3.204 2.331h-1.796c-3.444 0-6.309 2.504-6.887 5.785l-.79-2.106c.989-.491 1.677-1.502 1.677-2.679v-6c1.654 0 3-1.346 3-3s-1.346-3-3-3v-3c0-.553-.447-1-1-1h-1v-8.101c2.279-.465 4-2.484 4-4.899 0-2.757-2.243-5-5-5s-5 2.243-5 5c0 2.414 1.721 4.434 4 4.899v8.101h-1c-.553 0-1 .447-1 1v3h-2.573c-1.153 0-2.251.498-3.01 1.365-.76.868-1.107 2.021-.955 3.163l3.547 26.604c.066.497.49.868.991.868h42v-.013c.37 0 .723-.196.895-.54l3.105-6.211 3.105 6.211c.172.344.522.553.895.553.066 0 .134-.007.201-.021.443-.091.771-.469.797-.921.132-2.231.725-6.214 1.757-7.403 1.21-1.394 1.933-4.826 2.187-6.234.039-.219.058-.435.058-.658v-.628c0-.984-.399-1.948-1.096-2.645-1.008-1.008-2.474-1.355-3.827-.903zm-48.077-29.587c0-1.654 1.346-3 3-3s3 1.346 3 3-1.346 3-3 3-3-1.346-3-3zm35.062 34.431c.261 1.4.994 4.808 2.173 6.212.91 1.085 1.468 4.127 1.685 6.357h-2.92v-5h-2v5h-10v-10.953l4.445 2.964c.461.305 1.08.182 1.387-.277 1.646-2.47 2.624-6.742 2.989-8.589 1.025.085 2.031.313 2.984.702-.507.652-.805 1.457-.805 2.288v.62c0 .23.02.454.062.676zm-4.159-4.904c-.268 1.389-1.022 4.879-2.231 7.23l-4.191-2.794 4.287-5.145c.15-.178.232-.405.232-.639v-.036zm-17.903-15.527v-3c5.718 0 10.786-3.162 13.323-8.094 1.366 2.921 3.732 5.308 6.677 6.715v4.014c0 .814-.102 1.603-.277 2.365h-19.524c-.131-.651-.199-1.32-.199-2zm.038-5c.177-2.318.966-4.525 2.275-6.394 1.909-2.292 4.71-3.606 7.687-3.606.936 0 1.842.129 2.702.371-.124.116-.219.265-.271.436-1.678 5.486-6.656 9.176-12.393 9.193zm14.361-8.979c2.823 1.39 4.901 4.072 5.454 7.271-2.679-1.609-4.662-4.225-5.454-7.271zm8.101 10.979c.827 0 1.5.673 1.5 1.5s-.673 1.5-1.5 1.5h-.518c.004-.122.018-.242.018-.365v-2.635zm-2.5-20c3.859 0 7 3.141 7 7v7.704c0 5.54 1.141 11.039 3.324 16.113l-.255-.185c-2.341-1.703-4.471-3.676-6.375-5.856 1.341-.49 2.306-1.767 2.306-3.276 0-1.391-.822-2.585-2-3.149v-4.351c0-5.607-3.321-10.441-8.092-12.674 1.182-.852 2.611-1.326 4.092-1.326zm-10 2c6.617 0 12 5.383 12 12v4h-.002c0-.004.001-.007.001-.011-.005-6.61-5.388-11.989-11.999-11.989-3.572 0-6.934 1.577-9.273 4.392-1.59 2.263-2.507 4.876-2.688 7.608h-.039v-4c0-6.617 5.383-12 12-12zm-12.5 21c-.827 0-1.5-.673-1.5-1.5s.673-1.5 1.5-1.5h.5v3zm3.334 4h18.213c-1.575 3.473-4.949 5.927-8.86 5.998-2.716.037-5.263-.967-7.193-2.861-.93-.914-1.654-1.979-2.16-3.137zm9.163 8c.075 0 .151-.001.228-.002 1.322-.024 2.588-.283 3.775-.721v2.539l-4 4.8-4-4.8v-2.51c1.269.448 2.612.694 3.997.694zm-5.997 2.142v.036c0 .234.082.461.231.641l4.287 5.145-4.189 2.793c-1.202-2.356-1.931-5.874-2.186-7.265zm-15 .858v-6.184c.374-.133.711-.335 1-.596.289.26.626.463 1 .596v6.184c0 .552-.448 1-1 1s-1-.448-1-1zm5-9c0 .552-.448 1-1 1h-1c-.552 0-1-.448-1-1s.448-1 1-1h1c.552 0 1 .448 1 1zm-3-5v2.184c-.374.133-.711.336-1 .596-.289-.261-.626-.463-1-.596v-2.184zm-8.078 4.683c.38-.434.928-.683 1.505-.683h3.573c.552 0 1 .448 1 1s-.448 1-1 1h-3v2h2v6c0 .352.072.686.184 1h-3.575l-1.165-8.736c-.076-.572.098-1.148.478-1.581zm.954 12.317h5.431l2.693 7.182v1.818h-2v2h3c.553 0 1-.447 1-1v-7c0-2.757 2.243-5 5-5h1.203c.335 1.802 1.286 6.216 2.965 8.733.192.289.51.445.833.445.19 0 .383-.055.554-.168l4.445-2.963v10.953h-23.124zm54.124 1.763c0 .101-.007.197-.026.3-.373 2.067-1.052 4.502-1.729 5.282-.97 1.116-1.532 3.307-1.853 5.205l-1.604-3.207c-.341-.683-1.026-1.106-1.789-1.106s-1.448.424-1.789 1.105l-1.598 3.196c-.315-1.868-.874-4.021-1.848-5.181-.668-.797-1.354-3.232-1.738-5.297-.018-.101-.026-.202-.026-.305v-.62c0-.458.186-.906.51-1.23.468-.469 1.152-.632 1.78-.421l3.527 1.176c.191.064.386.112.583.144l3.045 2.029 1.109-1.664-1.3-.866 2.455-.818c.629-.211 1.312-.048 1.78.421.324.324.51.772.51 1.23v.627z"/></svg>