<svg id="Layer_1" enable-background="new 0 0 512 512" height="512" viewBox="0 0 512 512" width="512" xmlns="http://www.w3.org/2000/svg"><g><path d="m454 83.515-83.515-83.515h-248.485v272.274c-35.797 3.056-64 33.15-64 69.726 0 21 9.308 39.854 24 52.696v117.304h16.485l29.515-29.515 29.515 29.515h16.485v-52h280zm-80-63.03 59.515 59.515h-59.515zm-304 321.515c0-31.981 26.019-58 58-58s58 26.019 58 58-26.019 58-58 58-58-26.019-58-58zm58 123.515-34 34v-96.356c10.075 5.623 21.666 8.842 34 8.842s23.925-3.219 34-8.842v96.356zm46-17.515v-53.304c14.692-12.842 24-31.696 24-52.696 0-36.575-28.203-66.669-64-69.726v-260.274h228v80h80v356z"/><path d="m176 64h96v12h-96z"/><path d="m176 96h64v12h-64z"/><path d="m176 144h224v12h-224z"/><path d="m176 176h224v12h-224z"/><path d="m176 240h224v12h-224z"/><path d="m208 272h160v12h-160z"/><path d="m176 208h224v12h-224z"/><path d="m304 320h96v12h-96z"/><path d="m336 352h64v12h-64z"/><path d="m128 380c20.953 0 38-17.047 38-38s-17.047-38-38-38-38 17.047-38 38 17.047 38 38 38zm0-64c14.337 0 26 11.663 26 26s-11.663 26-26 26-26-11.663-26-26 11.663-26 26-26z"/></g></svg>