<?xml version="1.0" encoding="iso-8859-1"?>
<!-- Generator: Adobe Illustrator 19.0.0, SVG Export Plug-In . SVG Version: 6.00 Build 0)  -->
<svg version="1.1" id="Capa_1" xmlns="http://www.w3.org/2000/svg" xmlns:xlink="http://www.w3.org/1999/xlink" x="0px" y="0px"
	 viewBox="0 0 496 496" style="enable-background:new 0 0 496 496;" xml:space="preserve">
<g>
	<g>
		<path d="M472,280h-16v-69.808c9.928-11.28,16-26.024,16-42.192v-16h-16v-32h-16V72c0-17.648-14.352-32-32-32s-32,14.352-32,32v16
			h16V72c0-8.824,7.176-16,16-16c8.824,0,16,7.176,16,16v48h-16v32h-64v16c0,35.288,28.712,64,64,64v48h-80v-64h-16v-48h-8V80
			c0-44.112-35.888-80-80-80s-80,35.888-80,80h-40v48h128V80h-40c0-17.648,14.352-32,32-32s32,14.352,32,32v88h-8v48H88v0.456
			L48,187.88V136c0-13.232-10.768-24-24-24S0,122.768,0,136v71.824c0,7.68,3.72,14.952,9.952,19.456l112.68,81.384
			C127.552,320.016,138.848,328,152,328h0.808c3.72,18.232,19.872,32,39.192,32h24v88h-56c-22.056,0-40,17.944-40,40v8h288v-8
			c0-22.056-17.944-40-40-40h-56v-88h24c19.312,0,35.472-13.768,39.192-32H472c13.232,0,24-10.768,24-24S485.232,280,472,280z
			 M424,136h16v16h-16V136z M360,168h96c0,26.472-21.528,48-48,48S360,194.472,360,168z M440,223.344V280h-16v-50.104
			C429.68,228.424,435.048,226.216,440,223.344z M216,96v16h-96V96H216z M224,32c-26.472,0-48,21.528-48,48h-16
			c0-35.288,28.712-64,64-64c35.288,0,64,28.712,64,64v88h-16V80C272,53.528,250.472,32,224,32z M296,184v32h-32v-32H296z M312,232
			v48H179.552c-5.072-8.696-14.056-14.704-24.568-15.696L109.76,232H312z M121.176,287.872L19.32,214.304
			c-2.08-1.496-3.32-3.928-3.32-6.48V136c0-4.408,3.592-8,8-8s8,3.592,8,8v60.12l102.448,73.176
			C127.96,273.576,123.216,280.168,121.176,287.872z M152,312c-8.824,0-16-7.176-16-16c0-8.824,7.176-16,16-16
			c8.824,0,16,7.176,16,16C168,304.824,160.824,312,152,312z M368,464c10.432,0,19.328,6.688,22.632,16H137.368
			c3.304-9.312,12.2-16,22.632-16H368z M232,448v-88h64v88H232z M472,312H328v16h30.528c-3.312,9.288-12.112,16-22.528,16H192
			c-10.416,0-19.216-6.712-22.528-16H312v-16H179.552c2.752-4.728,4.448-10.144,4.448-16h288c4.408,0,8,3.584,8,8
			C480,308.416,476.408,312,472,312z"/>
	</g>
</g>
<g>
	<g>
		<rect x="376" y="104" width="16" height="16"/>
	</g>
</g>
<g>
</g>
<g>
</g>
<g>
</g>
<g>
</g>
<g>
</g>
<g>
</g>
<g>
</g>
<g>
</g>
<g>
</g>
<g>
</g>
<g>
</g>
<g>
</g>
<g>
</g>
<g>
</g>
<g>
</g>
</svg>
